<?xml version="1.0" encoding="UTF-8"?>
<svg id="Layer_1" xmlns="http://www.w3.org/2000/svg" version="1.1" viewBox="0 0 32 45">
  <!-- Generator: Adobe Illustrator 29.2.1, SVG Export Plug-In . SVG Version: 2.1.0 Build 116)  -->
  <defs>
    <style>
      .st0 {
        fill-rule: evenodd;
      }
    </style>
  </defs>
  <path d="M6.8,34.9c-.3,0-.6.1-.8.3-.2.2-.3.5-.3.8s.1.6.3.8c.2.2.5.3.8.3h7.9c.3,0,.6-.1.8-.3.2-.2.3-.5.3-.8s-.1-.6-.3-.8c-.2-.2-.5-.3-.8-.3h-7.9ZM5.6,30.4c0-.3.1-.6.3-.8.2-.2.5-.3.8-.3h17.4c.3,0,.6.1.8.3s.3.5.3.8-.1.6-.3.8-.5.3-.8.3H6.8c-.3,0-.6-.1-.8-.3-.2-.2-.3-.5-.3-.8Z"/>
  <path class="st0" d="M7.9,3.4c0-.9.4-1.8,1-2.4.6-.6,1.5-1,2.4-1h9c.9,0,1.8.4,2.4,1,.6.6,1,1.5,1,2.4h4.5c.9,0,1.8.4,2.4,1,.6.6,1,1.5,1,2.4v34.9c0,.9-.4,1.8-1,2.4-.6.6-1.5,1-2.4,1H3.4c-.9,0-1.8-.4-2.4-1-.6-.6-1-1.5-1-2.4V6.8c0-.9.4-1.8,1-2.4.6-.6,1.5-1,2.4-1h4.5ZM20.3,9c.9,0,1.8-.4,2.4-1,.6-.6,1-1.5,1-2.4h4.5c.3,0,.6.1.8.3.2.2.3.5.3.8v34.9c0,.3-.1.6-.3.8-.2.2-.5.3-.8.3H3.4c-.3,0-.6-.1-.8-.3-.2-.2-.3-.5-.3-.8V6.8c0-.3.1-.6.3-.8.2-.2.5-.3.8-.3h4.5c0,.9.4,1.8,1,2.4.6.6,1.5,1,2.4,1h9ZM11.3,2.2c-.3,0-.6.1-.8.3-.2.2-.3.5-.3.8v2.2c0,.3.1.6.3.8.2.2.5.3.8.3h9c.3,0,.6-.1.8-.3.2-.2.3-.5.3-.8v-2.2c0-.3-.1-.6-.3-.8-.2-.2-.5-.3-.8-.3h-9Z"/>
  <path d="M7.4,15.2h5.2v-5.3h6.3v5.3h5.2v6.3h-5.2v5.2h-6.3v-5.2h-5.2v-6.3ZM14.8,19.4v5.2h2.1v-5.2h5.3v-2.1h-5.3v-5.2h-2.1v5.2h-5.2v2.1h5.2Z"/>
</svg>