<svg width="40" height="40" viewBox="0 0 40 40" fill="none" xmlns="http://www.w3.org/2000/svg">
<path d="M0 10.5263L14.7368 19.0316V10.5263L29.4737 18.9474V0H40V40H0V10.5263ZM31.5789 23.1579L16.8421 14.1684V22.6737L2.10526 14.1684V37.8947H37.8947V2.10526H31.5789V23.1579ZM6.31579 25.2632H12.6316V27.3684H6.31579V25.2632ZM6.31579 31.5789H16.8421V33.6842H6.31579V31.5789ZM21.0526 25.2632H27.3684V27.3684H21.0526V25.2632ZM21.0526 31.5789H33.6842V33.6842H21.0526V31.5789Z" fill="black"/>
<path d="M5.89453 26.5234H12.9682M20.5472 26.5234H27.6208M5.89453 32.5866H17.0103M20.5472 32.5866H33.684" stroke="black" stroke-width="3"/>
</svg>
