<svg width="44" height="46" viewBox="0 0 44 46" fill="none" xmlns="http://www.w3.org/2000/svg">
<path d="M9.58858 29.5986C8.771 27.6627 8.34898 25.569 8.34964 23.4521C8.34964 15.3015 14.4603 8.69962 21.999 8.69962C29.5376 8.69962 35.6483 15.3037 35.6483 23.4521C35.6489 25.569 35.2269 27.6627 34.4093 29.5986M21.999 1V3.19989M42.9979 22.9989H40.898M3.0999 22.9989H1M36.8452 7.44348L35.3606 8.99881M8.63732 9.00101L7.1527 7.44568M27.2844 39.0735C29.4053 38.3542 30.2579 36.3193 30.4972 34.2734C30.5686 33.6618 30.0878 33.1536 29.4998 33.1536H14.601C14.4574 33.1512 14.315 33.1808 14.1832 33.2404C14.0513 33.2999 13.933 33.3882 13.8361 33.4992C13.7393 33.6103 13.666 33.7416 13.6212 33.8846C13.5764 34.0275 13.5611 34.1788 13.5763 34.3284C13.8115 36.3699 14.4036 37.8614 16.6505 39.0713M27.2844 39.0735L16.6505 39.0713M27.2844 39.0735C27.0303 43.3523 25.8502 45.0462 22.0137 44.9978C17.9105 45.077 16.9655 42.9805 16.6505 39.0713" stroke="black" stroke-width="2" stroke-linecap="round" stroke-linejoin="round"/>
<path d="M19.7625 30.8253L19.4468 28.1658C19.2757 28.0965 19.1147 28.0134 18.9637 27.9165C18.8126 27.8195 18.6645 27.7156 18.5192 27.6048L16.1708 28.6437L14 24.6959L16.0327 23.0752C16.0195 22.9783 16.0129 22.8849 16.0129 22.7952V22.2342C16.0129 22.1438 16.0195 22.0502 16.0327 21.9532L14 20.3326L16.1708 16.3848L18.5192 17.4237C18.664 17.3129 18.8153 17.209 18.9731 17.112C19.131 17.0151 19.2889 16.9319 19.4468 16.8627L19.7625 14.2031H24.1041L24.4199 16.8627C24.5909 16.9319 24.7522 17.0151 24.9038 17.112C25.0554 17.209 25.2032 17.3129 25.3474 17.4237L27.6959 16.3848L29.8667 20.3326L27.834 21.9532C27.8472 22.0502 27.8537 22.1438 27.8537 22.2342V22.7943C27.8537 22.8846 27.8406 22.9783 27.8143 23.0752L29.8469 24.6959L27.6761 28.6437L25.3474 27.6048C25.2027 27.7156 25.0514 27.8195 24.8935 27.9165C24.7357 28.0134 24.5778 28.0965 24.4199 28.1658L24.1041 30.8253H19.7625ZM21.1439 29.1631H22.703L22.9793 26.9607C23.3871 26.8499 23.7655 26.6872 24.1144 26.4728C24.4633 26.2584 24.7822 25.9985 25.0711 25.6932L27.0249 26.5451L27.7945 25.1322L26.0973 23.7817C26.1631 23.5878 26.2092 23.3836 26.2355 23.1692C26.2618 22.9547 26.275 22.7364 26.275 22.5142C26.275 22.2921 26.2618 22.074 26.2355 21.8602C26.2092 21.6463 26.1631 21.4418 26.0973 21.2468L27.7945 19.8962L27.0249 18.4833L25.0711 19.356C24.7817 19.0374 24.4628 18.7709 24.1144 18.5565C23.766 18.3421 23.3876 18.1792 22.9793 18.0678L22.7227 15.8653H21.1637L20.8874 18.0678C20.4795 18.1786 20.1014 18.3415 19.753 18.5565C19.4047 18.7715 19.0855 19.0311 18.7955 19.3352L16.8418 18.4833L16.0721 19.8962L17.7693 21.226C17.7035 21.4338 17.6575 21.6416 17.6312 21.8493C17.6049 22.0571 17.5917 22.2788 17.5917 22.5142C17.5917 22.7359 17.6049 22.9506 17.6312 23.1583C17.6575 23.3661 17.7035 23.5739 17.7693 23.7817L16.0721 25.1322L16.8418 26.5451L18.7955 25.6725C19.085 25.9911 19.4041 26.2578 19.753 26.4728C20.102 26.6878 20.4801 26.8504 20.8874 26.9607L21.1439 29.1631ZM21.9728 25.4231C22.7359 25.4231 23.3871 25.1392 23.9265 24.5712C24.4659 24.0033 24.7357 23.3176 24.7357 22.5142C24.7357 21.7108 24.4659 21.0252 23.9265 20.4572C23.3871 19.8893 22.7359 19.6053 21.9728 19.6053C21.1966 19.6053 20.5419 19.8893 20.0088 20.4572C19.4757 21.0252 19.2094 21.7108 19.21 22.5142C19.2105 23.3176 19.477 24.0033 20.0096 24.5712C20.5422 25.1392 21.1966 25.4231 21.9728 25.4231Z" fill="black"/>
</svg>
