<svg width="42" height="42" viewBox="0 0 42 42" fill="none" xmlns="http://www.w3.org/2000/svg">
<path d="M24.9594 24.9594L29.7504 29.7504M29.7504 29.7504C29.4704 30.0303 29.2496 30.3636 29.101 30.7305C28.9524 31.0975 28.879 31.4905 28.8852 31.8863C28.8914 32.2822 28.9771 32.6727 29.1372 33.0348C29.2973 33.3968 29.5285 33.7231 29.8171 33.994L35.8908 40.0677C36.1618 40.3563 36.488 40.5875 36.8501 40.7476C37.2121 40.9077 37.6027 40.9934 37.9985 40.9996C38.3944 41.0059 38.7874 40.9325 39.1543 40.7839C39.5213 40.6353 39.8546 40.4144 40.1345 40.1345C40.4144 39.8546 40.6353 39.5213 40.7839 39.1543C40.9325 38.7874 41.0059 38.3944 40.9996 37.9985C40.9934 37.6027 40.9077 37.2121 40.7476 36.8501C40.5875 36.488 40.3563 36.1618 40.0677 35.8908L33.994 29.8171C33.7231 29.5285 33.3968 29.2973 33.0348 29.1372C32.6727 28.9771 32.2822 28.8914 31.8863 28.8852C31.4905 28.879 31.0975 28.9524 30.7305 29.101C30.3636 29.2496 30.0303 29.4704 29.7504 29.7504ZM28.9526 14.9763C28.9526 11.2695 27.4801 7.71462 24.859 5.09356C22.238 2.4725 18.683 1 14.9763 1C11.2695 1 7.71462 2.4725 5.09356 5.09356C2.4725 7.71462 1 11.2695 1 14.9763C1 18.683 2.4725 22.238 5.09356 24.859C7.71462 27.4801 11.2695 28.9526 14.9763 28.9526C18.683 28.9526 22.238 27.4801 24.859 24.859C27.4801 22.238 28.9526 18.683 28.9526 14.9763Z" stroke="black" stroke-width="2" stroke-linecap="round" stroke-linejoin="round"/>
<circle cx="14.8945" cy="14.8984" r="10.75" stroke="black" stroke-width="1.5"/>
</svg>
