<svg width="46" height="46" viewBox="0 0 46 46" fill="none" xmlns="http://www.w3.org/2000/svg">
<path d="M42.1478 14.6C40.5129 10.8541 37.8205 7.66663 34.4006 5.4285C30.9808 3.19037 26.9821 1.99884 22.895 2C12.0065 2 3.05 10.2887 2 20.9" stroke="black" stroke-width="2.5" stroke-linecap="round" stroke-linejoin="round"/>
<path d="M35.4921 14.6031H42.6321C42.7975 14.6031 42.9614 14.5705 43.1143 14.5072C43.2671 14.4439 43.406 14.3511 43.523 14.2341C43.64 14.1171 43.7329 13.9782 43.7962 13.8253C43.8595 13.6724 43.8921 13.5086 43.8921 13.3431V6.20312M3.74219 31.4031C6.98459 38.8203 14.385 44.0031 22.995 44.0031C33.8856 44.0031 42.84 35.7144 43.8921 25.1031" stroke="black" stroke-width="2.5" stroke-linecap="round" stroke-linejoin="round"/>
<path d="M10.4 31.3984H3.26C2.92583 31.3984 2.60534 31.5312 2.36905 31.7675C2.13275 32.0038 2 32.3243 2 32.6584V39.7984" stroke="black" stroke-width="2.5" stroke-linecap="round" stroke-linejoin="round"/>
<path d="M23.7512 9.89844C24.1217 9.89844 24.453 10.129 24.5778 10.4743L25.4673 12.94C25.7856 13.019 26.0603 13.0996 26.2913 13.182C26.5433 13.2718 26.8709 13.4104 27.2741 13.5978L29.3454 12.5016C29.5144 12.4116 29.7081 12.379 29.8972 12.4088C30.0863 12.4386 30.2606 12.5291 30.3937 12.6666L32.2156 14.5503C32.4575 14.8011 32.5256 15.1677 32.3895 15.4877L31.4181 17.7645C31.5785 18.0602 31.7079 18.3139 31.8061 18.5256C31.912 18.7549 32.043 19.0741 32.1992 19.4832L34.4634 20.4534C34.8036 20.5983 35.014 20.9385 34.9913 21.3026L34.825 23.9171C34.8136 24.0869 34.7526 24.2497 34.6496 24.3852C34.5466 24.5207 34.406 24.623 34.2454 24.6794L32.101 25.4417C32.0396 25.7373 31.975 25.9918 31.9069 26.2052C31.7968 26.5359 31.6715 26.8613 31.5315 27.1804L32.6087 29.5618C32.6854 29.729 32.7062 29.9164 32.668 30.0964C32.6299 30.2763 32.5349 30.4392 32.3971 30.561L30.3484 32.3905C30.2137 32.5109 30.0453 32.5871 29.8659 32.6088C29.6866 32.6304 29.5049 32.5964 29.3454 32.5114L27.2337 31.3926C26.9037 31.5682 26.5628 31.7226 26.2132 31.855L25.2909 32.2002L24.4719 34.4682C24.4106 34.6339 24.301 34.7774 24.1572 34.8801C24.0135 34.9827 23.8422 35.0398 23.6656 35.044L21.2716 35.0982C21.0903 35.1024 20.912 35.0506 20.7612 34.9498C20.6103 34.849 20.4942 34.7042 20.4287 34.535L19.4636 31.981C19.1344 31.8682 18.8084 31.7464 18.4859 31.6156C18.2222 31.5014 17.9625 31.3783 17.7072 31.2464L15.3133 32.2695C15.1556 32.3371 14.9816 32.3573 14.8127 32.3275C14.6437 32.2978 14.4871 32.2194 14.362 32.1019L12.5905 30.44C12.4582 30.3172 12.368 30.1556 12.3329 29.9784C12.2978 29.8012 12.3197 29.6175 12.3952 29.4535L13.4246 27.2107C13.2882 26.9448 13.1613 26.6741 13.0441 26.3992C12.9076 26.0626 12.7816 25.7218 12.6661 25.3774L10.4108 24.6907C10.2275 24.6353 10.0676 24.5209 9.95595 24.3653C9.84432 24.2097 9.78718 24.0215 9.79343 23.8301L9.88163 21.4097C9.88818 21.2518 9.93762 21.0987 10.0246 20.9669C10.1117 20.835 10.233 20.7294 10.3755 20.6613L12.7417 19.5247C12.8509 19.1232 12.9475 18.8091 13.0315 18.5823C13.1504 18.2777 13.2824 17.9784 13.4271 17.6852L12.4015 15.518C12.3231 15.3535 12.2992 15.1684 12.3331 14.9894C12.3671 14.8104 12.4573 14.6469 12.5905 14.5226L14.3595 12.8518C14.4834 12.7346 14.6385 12.6558 14.8062 12.6249C14.974 12.5941 15.147 12.6125 15.3045 12.678L17.6959 13.6658C17.9596 13.4902 18.1999 13.3458 18.4166 13.2324C18.6744 13.0963 19.0205 12.951 19.4548 12.7964L20.2863 10.4768C20.3484 10.3074 20.461 10.1612 20.6088 10.0578C20.7566 9.95436 20.9325 9.89875 21.1129 9.89844H23.7512ZM23.1339 11.6334H21.7315L20.9692 13.7679C20.9239 13.892 20.8512 14.0043 20.7565 14.0966C20.6619 14.1888 20.5477 14.2586 20.4224 14.3008C19.8731 14.4835 19.4762 14.641 19.2444 14.7633C18.9974 14.8935 18.6866 15.0908 18.312 15.3554C18.1901 15.4414 18.0483 15.4951 17.9 15.5114C17.7517 15.5277 17.6017 15.5061 17.464 15.4487L15.1583 14.4974L14.26 15.3466L15.1961 17.3248C15.2522 17.4425 15.2806 17.5714 15.2793 17.7018C15.278 17.8321 15.247 17.9605 15.1886 18.077C14.9366 18.5823 14.7665 18.9552 14.6808 19.1845C14.5489 19.5661 14.4353 19.9538 14.3406 20.3463C14.309 20.469 14.2508 20.5834 14.1703 20.6814C14.0898 20.7793 13.9888 20.8585 13.8744 20.9133L11.6191 21.9956L11.5738 23.2304L13.6149 23.8503C13.8858 23.9322 14.1 24.1401 14.1894 24.4072C14.3919 25.0137 14.5514 25.4572 14.6682 25.7377C14.8218 26.0927 14.9916 26.4404 15.1772 26.7798C15.24 26.8965 15.2748 27.0262 15.279 27.1587C15.2832 27.2912 15.2565 27.4229 15.2012 27.5433L14.2549 29.6072L15.1508 30.4488L17.396 29.4887C17.5169 29.4368 17.6479 29.4125 17.7793 29.4178C17.9108 29.423 18.0394 29.4576 18.1558 29.519C18.6177 29.7609 18.9575 29.928 19.1751 30.0204C19.3956 30.1124 19.8176 30.2661 20.43 30.4753C20.5513 30.5173 20.6619 30.5854 20.7542 30.6746C20.8464 30.7638 20.9181 30.8721 20.9642 30.9919L21.8563 33.3493L23.023 33.3241L23.7752 31.2401C23.8188 31.1215 23.8874 31.0137 23.9763 30.9239C24.0652 30.8341 24.1723 30.7645 24.2905 30.7197L25.5971 30.2309C25.928 30.1091 26.3274 29.9159 26.7953 29.6513C26.9245 29.5783 27.0701 29.539 27.2186 29.5373C27.367 29.5355 27.5135 29.5713 27.6445 29.6412L29.6314 30.6933L30.749 29.6966L29.7713 27.5383C29.721 27.4275 29.6949 27.3073 29.6947 27.1856C29.6945 27.0639 29.7201 26.9436 29.77 26.8327C29.9994 26.3199 30.1543 25.933 30.2324 25.6861C30.3106 25.4425 30.3883 25.096 30.4655 24.6466C30.492 24.4942 30.5586 24.3517 30.6584 24.2336C30.7583 24.1156 30.8879 24.0263 31.0338 23.975L33.1102 23.2379L33.2009 21.8015L31.1598 20.9271C31.0514 20.8804 30.9535 20.8123 30.8719 20.7271C30.7904 20.6418 30.7267 20.541 30.6848 20.4307C30.5395 20.0289 30.3807 19.6322 30.2085 19.2412C30.0458 18.9007 29.8693 18.567 29.6793 18.2408C29.6133 18.1257 29.575 17.9967 29.5674 17.8642C29.5597 17.7317 29.5829 17.5993 29.6352 17.4773L30.5487 15.3353L29.5861 14.3399L27.7113 15.3328C27.589 15.398 27.453 15.4334 27.3145 15.4363C27.1759 15.4391 27.0386 15.4093 26.9137 15.3491C26.516 15.1508 26.109 14.9717 25.6941 14.8124C25.3406 14.6931 24.98 14.5963 24.6143 14.5226C24.4695 14.4912 24.335 14.4238 24.2231 14.3267C24.1113 14.2296 24.0257 14.1059 23.9742 13.9669L23.1339 11.6334ZM22.4232 17.006C25.4912 17.006 27.9796 19.4668 27.9796 22.5008C27.9796 25.5349 25.4912 27.9944 22.4232 27.9944C19.3552 27.9944 16.8668 25.5349 16.8668 22.5008C16.8668 19.4668 19.354 17.0073 22.4232 17.0073M22.4232 18.7436C20.3229 18.7436 18.6207 20.4256 18.6207 22.5021C18.6207 24.5786 20.3229 26.2619 22.4232 26.2619C24.5236 26.2619 26.2245 24.5786 26.2245 22.5021C26.2245 20.4256 24.5236 18.7436 22.4232 18.7436Z" fill="black"/>
</svg>
