<svg width="48" height="38" viewBox="0 0 48 38" fill="none" xmlns="http://www.w3.org/2000/svg">
<path d="M0 12V4.30933C0 3.08089 0.411556 2.056 1.23467 1.23467C2.05778 0.413333 3.08178 0.00177778 4.30667 0H43.6933C44.92 0 45.944 0.411555 46.7653 1.23467C47.5867 2.05778 47.9982 3.08267 48 4.30933V12H45.3333V4.30933C45.3333 3.89867 45.1627 3.52178 44.8213 3.17867C44.48 2.83556 44.104 2.66489 43.6933 2.66667H4.30667C3.89778 2.66667 3.52178 2.83733 3.17867 3.17867C2.83556 3.52 2.66489 3.89689 2.66667 4.30933V12H0ZM4.30933 37.3333C3.08089 37.3333 2.056 36.9227 1.23467 36.1013C0.413333 35.28 0.00177778 34.2542 0 33.024V25.3333H2.66667V33.0267C2.66667 33.4356 2.83733 33.8116 3.17867 34.1547C3.52 34.4978 3.896 34.6685 4.30667 34.6667H43.6933C44.1022 34.6667 44.4782 34.496 44.8213 34.1547C45.1644 33.8133 45.3351 33.4365 45.3333 33.024V25.3333H48V33.0267C48 34.2533 47.5893 35.2773 46.768 36.0987C45.9467 36.92 44.9218 37.3316 43.6933 37.3333H4.30933ZM18.6667 30.6667C18.9156 30.6667 19.152 30.6045 19.376 30.48C19.6 30.3556 19.7707 30.1689 19.888 29.92L29.3333 11.024L33.4453 19.248C33.5644 19.4969 33.7351 19.6836 33.9573 19.808C34.1796 19.9325 34.416 19.9964 34.6667 20H48V17.3333H35.512L30.552 7.41334C30.4347 7.2 30.2729 7.04445 30.0667 6.94667C29.8604 6.84889 29.616 6.8 29.3333 6.8C29.0844 6.8 28.8489 6.84889 28.6267 6.94667C28.4044 7.04445 28.2329 7.20089 28.112 7.416L18.6667 26.3093L14.5547 18.08C14.4356 17.8311 14.2649 17.6444 14.0427 17.52C13.8204 17.3956 13.584 17.3333 13.3333 17.3333H0V20H12.488L17.448 29.92C17.5671 30.1689 17.7378 30.3556 17.96 30.48C18.1822 30.6045 18.4178 30.6667 18.6667 30.6667Z" fill="black"/>
<path d="M0 18.5H12.9414C13.1374 18.5 13.3153 18.6145 13.3965 18.7928L18.0561 29.0251C18.232 29.4115 18.779 29.4166 18.9622 29.0336L29.0273 7.98844C29.2122 7.60181 29.766 7.61177 29.9369 8.0048L34.3693 18.1994C34.4487 18.3819 34.6288 18.5 34.8278 18.5H48" stroke="black" stroke-width="2.8"/>
</svg>
