<svg width="30" height="30" viewBox="0 0 30 30" fill="none" xmlns="http://www.w3.org/2000/svg">
<path d="M7.6125 18.75C7.12582 17.65 6.87461 16.4604 6.875 15.2575C6.875 10.6263 10.5125 6.875 15 6.875C19.4875 6.875 23.125 10.6275 23.125 15.2575C23.1254 16.4604 22.8742 17.65 22.3875 18.75M15 2.5V3.75M27.5 15H26.25M3.75 15H2.5M23.8375 6.16125L22.9537 7.045M7.04625 7.04625L6.1625 6.1625M18.1462 24.1337C19.4087 23.725 19.9162 22.5688 20.0587 21.4063C20.1012 21.0588 19.815 20.77 19.465 20.77H10.5962C10.5108 20.7686 10.426 20.7854 10.3475 20.8193C10.269 20.8531 10.1986 20.9033 10.1409 20.9664C10.0833 21.0295 10.0397 21.1041 10.013 21.1853C9.98633 21.2665 9.97721 21.3525 9.98625 21.4375C10.1262 22.5975 10.4787 23.445 11.8162 24.1325M18.1462 24.1337L11.8162 24.1325M18.1462 24.1337C17.995 26.565 17.2925 27.5275 15.0087 27.5C12.5662 27.545 12.0037 26.3537 11.8162 24.1325" stroke="black" stroke-width="2.4" stroke-linecap="round" stroke-linejoin="round"/>
<path d="M13.5871 19L13.4179 17.64C13.3263 17.6046 13.24 17.5621 13.1591 17.5125C13.0782 17.4629 12.9988 17.4098 12.921 17.3531L11.6629 17.8844L10.5 15.8656L11.5889 15.0369C11.5819 14.9873 11.5784 14.9395 11.5784 14.8937V14.6068C11.5784 14.5606 11.5819 14.5127 11.5889 14.4631L10.5 13.6344L11.6629 11.6156L12.921 12.1469C12.9985 12.0902 13.0796 12.0371 13.1642 11.9875C13.2488 11.9379 13.3333 11.8954 13.4179 11.86L13.5871 10.5H15.9129L16.0821 11.86C16.1737 11.8954 16.2601 11.9379 16.3413 11.9875C16.4225 12.0371 16.5017 12.0902 16.579 12.1469L17.8371 11.6156L19 13.6344L17.9111 14.4631C17.9181 14.5127 17.9216 14.5606 17.9216 14.6068V14.8932C17.9216 14.9394 17.9146 14.9873 17.9005 15.0369L18.9894 15.8656L17.8265 17.8844L16.579 17.3531C16.5015 17.4098 16.4204 17.4629 16.3358 17.5125C16.2512 17.5621 16.1667 17.6046 16.0821 17.64L15.9129 19H13.5871ZM14.3271 18.15H15.1623L15.3103 17.0238C15.5288 16.9671 15.7315 16.8839 15.9184 16.7743C16.1053 16.6646 16.2762 16.5317 16.431 16.3756L17.4776 16.8113L17.8899 16.0887L16.9807 15.3981C17.016 15.299 17.0406 15.1945 17.0547 15.0849C17.0688 14.9752 17.0759 14.8636 17.0759 14.75C17.0759 14.6364 17.0688 14.5249 17.0547 14.4155C17.0406 14.3062 17.016 14.2016 16.9807 14.1019L17.8899 13.4113L17.4776 12.6888L16.431 13.135C16.2759 12.9721 16.1051 12.8358 15.9184 12.7262C15.7318 12.6165 15.5291 12.5332 15.3103 12.4763L15.1729 11.35H14.3377L14.1897 12.4763C13.9712 12.5329 13.7686 12.6162 13.582 12.7262C13.3954 12.8361 13.2244 12.9688 13.069 13.1244L12.0224 12.6888L11.6101 13.4113L12.5193 14.0912C12.484 14.1975 12.4594 14.3037 12.4453 14.41C12.4312 14.5162 12.4241 14.6296 12.4241 14.75C12.4241 14.8633 12.4312 14.9731 12.4453 15.0794C12.4594 15.1856 12.484 15.2919 12.5193 15.3981L11.6101 16.0887L12.0224 16.8113L13.069 16.365C13.2241 16.5279 13.3951 16.6643 13.582 16.7743C13.7689 16.8842 13.9715 16.9674 14.1897 17.0238L14.3271 18.15ZM14.7711 16.2375C15.1799 16.2375 15.5288 16.0923 15.8178 15.8019C16.1068 15.5115 16.2512 15.1608 16.2512 14.75C16.2512 14.3392 16.1068 13.9885 15.8178 13.6981C15.5288 13.4077 15.1799 13.2625 14.7711 13.2625C14.3553 13.2625 14.0046 13.4077 13.719 13.6981C13.4334 13.9885 13.2908 14.3392 13.291 14.75C13.2913 15.1608 13.4341 15.5115 13.7194 15.8019C14.0047 16.0923 14.3553 16.2375 14.7711 16.2375Z" fill="#7F03B0"/>
</svg>
