<svg width="358" height="770" viewBox="0 0 358 770" fill="none" xmlns="http://www.w3.org/2000/svg">
<path d="M334 -0.5V83.5C334 94.5457 325.046 103.5 314 103.5H231C219.954 103.5 211 112.454 211 123.5V157.5C211 168.546 202.046 177.5 191 177.5H21C9.9543 177.5 1 186.454 1 197.5V257C1 268.046 9.9543 277 21 277H250C261.046 277 270 285.954 270 297V328C270 339.046 261.046 348 250 348H42.5C31.4543 348 22.5 356.954 22.5 368V431.5C22.5 442.546 31.4543 451.5 42.5 451.5H337C348.046 451.5 357 460.454 357 471.5V503C357 514.046 348.046 523 337 523H100C88.9543 523 80 531.954 80 543V601C80 612.046 88.9543 621 100 621H297.5C308.546 621 317.5 629.954 317.5 641V670C317.5 681.046 308.546 690 297.5 690H42.5C31.4543 690 22.5 698.954 22.5 710V771" stroke="black" stroke-width="2"/>
</svg>
